PathFileType	4	(X/Y/Z)	pose_F01_0-97.trc
DataRate	CameraRate	NumFrames	NumMarkers	Units	OrigDataRate	OrigDataStartFrame	OrigNumFrames
60	60	9	21	m	60	0	97
Frame#	Time	CHip			RHip			RKnee			RAnkle			RBigToe			RSmallToe			RHeel			LHip			LKnee			LAnkle			LBigToe			LSmallToe			LHeel			Neck			Nose			RShoulder			RElbow			RWrist			LShoulder			LElbow			LWrist			
		X1	Y1	Z1	X2	Y2	Z2	X3	Y3	Z3	X4	Y4	Z4	X5	Y5	Z5	X6	Y6	Z6	X7	Y7	Z7	X8	Y8	Z8	X9	Y9	Z9	X10	Y10	Z10	X11	Y11	Z11	X12	Y12	Z12	X13	Y13	Z13	X14	Y14	Z14	X15	Y15	Z15	X16	Y16	Z16	X17	Y17	Z17	X18	Y18	Z18	X19	Y19	Z19	X20	Y20	Z20	X21	Y21	Z21	
0	0.0	-0.2698778638303044	1.8183890773561016	-0.5861584953366034	-0.28299519276238866	1.8159207483473587	-0.5289772524614591	-0.2845818628749381	1.6812369052057898	-0.5000592047791704	-0.28450893475012645	1.551260802029025	-0.47431181164165714	-0.23558788598245822	1.5086377203913193	-0.44262062634263827	-0.2544929612223265	1.5235867117659436	-0.43398056662835915	-0.2918828279477738	1.5354261774033777	-0.4865721029835374	-0.25380962236559346	1.8204542407548934	-0.6451399497168233	-0.2665549903736228	1.6829196007644602	-0.598345313465759	-0.24947342236511336	1.5384958399866855	-0.5240607035241428	-0.3516220028086925	1.5137054982842186	-1.0480138257654974	-0.34676915498643635	1.523902071143449	-1.0344293003277045	-0.3857424288622242	1.5206535999172557	-1.0297877439819292	-0.27125048108197763	1.9834165314410097	-0.5991228934030237	-0.2258052589129898	2.050649284880553	-0.576479678872435	-0.29333860345583135	1.9796738264458256	-0.5291203939976341	-0.2975167976157231	1.895269701883823	-0.5048167140797041	-0.2733825883363917	1.8480946948347619	-0.4308496078229849	-0.24854361350004328	1.9855916581917994	-0.6723193236667152	-0.24835840063039855	1.8944038276056603	-0.7001915060932115	-0.2177267551429872	1.8759840564285875	-0.6038213883272334
1	0.016666666666666666	-0.2707291473209779	1.8200818472743512	-0.5896943231985835	-0.2846927605237976	1.8192307080873402	-0.5359525845148342	-0.2828768290083312	1.6834432527208316	-0.5019999091778473	-0.2859264701162662	1.5528987796197007	-0.47737202905343723	-0.23674273833464685	1.5140247059582888	-0.44701260683420674	-0.2515935310439839	1.524293282430857	-0.43272918685246603	-0.29377846135486163	1.5341983218099173	-0.48486967634909983	-0.254588925135496	1.822203110855294	-0.6484458228174743	-0.2630128314360168	1.6839806417308136	-0.6063170058753131	-0.24947342236511336	1.5384958399866855	-0.5240607035241428	-0.3516220028086925	1.5137054982842186	-1.0480138257654974	-0.34676915498643635	1.523902071143449	-1.0344293003277045	-0.387534941438089	1.5225416508542502	-1.026525860148679	-0.2742216838935556	1.9837687774139998	-0.6088686835427942	-0.22547593372052596	2.052091496523187	-0.5849719087121975	-0.2955042495799686	1.9814423236393235	-0.5362556052987331	-0.30066734659459526	1.8946545784726843	-0.5144730043143743	-0.2775081064431046	1.8486628111757317	-0.4439288258960162	-0.25030238073880356	1.9857826439901034	-0.678519730395173	-0.25367988375308886	1.8990282272317542	-0.6988362995937245	-0.21368121387325484	1.8733080755275715	-0.6169602359660428
2	0.03333333333333333	-0.27456159606843045	1.815427668911406	-0.58975730291764	-0.2855357883648415	1.8143552696919507	-0.5351968397827915	-0.2833505058086729	1.6816602025032015	-0.501459375228009	-0.287046200341449	1.5502556929520226	-0.48038228730462806	-0.23789759068683547	1.5194116915252582	-0.4514045873257752	-0.25216621514574644	1.5223897525190393	-0.4313546944557548	-0.29567409476194945	1.532970466216457	-0.48316724971466224	-0.25725845155565286	1.8180519741069343	-0.6457594743795153	-0.25347306004166525	1.6835637733979827	-0.6161017166185883	-0.24947342236511336	1.5384958399866855	-0.5240607035241428	-0.3516220028086925	1.5137054982842186	-1.0480138257654974	-0.34676915498643635	1.523902071143449	-1.0344293003277045	-0.38932745401395374	1.5244297017912447	-1.023263976315429	-0.27403673936067924	1.9851263643589323	-0.6172747083979887	-0.2261566286182362	2.0550513657341853	-0.5966602223346357	-0.29533261308021713	1.984253631659465	-0.5531427031196766	-0.3112210498626778	1.8951207978726872	-0.521066410107401	-0.26990714391078896	1.8423707121545452	-0.46561577322794345	-0.2512797129099403	1.9872457957694667	-0.6819533466729771	-0.25215579234103974	1.9004138394542753	-0.7127565478614734	-0.20963567260352248	1.8706320946265553	-0.6300990836048521
3	0.05	-0.27441384051327705	1.8135505576313746	-0.5894465632510502	-0.28668678152993	1.8125280487363238	-0.5378403991607237	-0.28010118116674176	1.6804542476858522	-0.5090339173982765	-0.288456099596441	1.552052756174615	-0.48350883972381886	-0.2390524430390241	1.5247986770922277	-0.4557965678173437	-0.2542995735164872	1.5273803314240324	-0.43902928933642343	-0.29528155310962056	1.5354628998437418	-0.4885716564526572	-0.2551787276375665	1.8150684167386375	-0.6473867958066057	-0.252871855348663	1.6792213399429035	-0.6248549910749063	-0.24947342236511336	1.5384958399866855	-0.5240607035241428	-0.3516220028086925	1.5137054982842186	-1.0480138257654974	-0.34676915498643635	1.523902071143449	-1.0344293003277045	-0.3911199665898185	1.5263177527282392	-1.0200020924821789	-0.2750747526520921	1.9840791983619224	-0.6204206362447698	-0.22593613801822307	2.0553353405447967	-0.6050014248673519	-0.294534006223945	1.9821334058375188	-0.558411843913506	-0.31957532532467353	1.8945865666276036	-0.5208846808940122	-0.26956030094862876	1.8454317227637544	-0.47494161285617353	-0.2521864590556034	1.9873901141006096	-0.6851011088273358	-0.25210661531451317	1.8995417701277604	-0.7126291876745122	-0.20559013133379012	1.8679561137255394	-0.6432379312436615
4	0.06666666666666667	-0.27654350561023117	1.8141474616097946	-0.5874446939521102	-0.28873384462236223	1.8129562845146925	-0.5358835008773912	-0.2794845166136231	1.6838915562360293	-0.5143255226154911	-0.2906377473795656	1.5517645024896072	-0.4902775888102585	-0.24302298815875537	1.5238955153698406	-0.46019616306214833	-0.2574593490798946	1.5264212879405594	-0.4490308445173556	-0.47972648878274676	1.5148568694277655	-1.0133990477818648	-0.2552140406113084	1.8185380932300557	-0.6478243521731685	-0.253191328197489	1.680602889677294	-0.6246157679266899	-0.24947342236511336	1.5384958399866855	-0.5240607035241428	-0.3516220028086925	1.5137054982842186	-1.0480138257654974	-0.34676915498643635	1.523902071143449	-1.0344293003277045	-0.3929124791656833	1.5282058036652337	-1.0167402086489288	-0.26890755828919244	1.9829539768527475	-0.6270556037020433	-0.22405323858096488	2.05304351023891	-0.6076245086682748	-0.29260429542795807	1.9810353403808965	-0.5607189620390461	-0.31654070073565144	1.8931190969697087	-0.5280307502888951	-0.26491843987200286	1.8537247387028628	-0.48080243067095857	-0.24590822057471173	1.9849535710714084	-0.6918767494557044	-1.1079009857871407	1.8313754193193004	0.14212978516875407	-0.1928086944273686	1.872997051872773	-0.6505995682402034
5	0.08333333333333333	-0.27277196751751165	1.8149964602471873	-0.5917259026021723	-0.2877505937997628	1.8138081535167785	-0.5328060782324391	-0.28159487967695696	1.683725506521795	-0.5120989558292368	-0.29608248814085436	1.5512543123567262	-0.5068711810118974	-0.24713130499326294	1.5214965214800475	-0.48277860103552955	-0.26271714274871827	1.5250605807794835	-0.4659578176733296	-0.3037321005847354	1.5364953817537208	-0.5106756500167514	-0.256469757431144	1.816256223051745	-0.6505768502201379	-0.2553777223250746	1.6818595894575796	-0.6224163664250268	-0.24947342236511336	1.5384958399866855	-0.5240607035241428	-0.3516220028086925	1.5137054982842186	-1.0480138257654974	-0.34676915498643635	1.523902071143449	-1.0344293003277045	-0.39470499174154805	1.5300938546022282	-1.0134783248156787	-0.2646617288108113	1.9831501068395976	-0.6314106247207241	-0.22488962895989018	2.0520371459646607	-0.6108666808341449	-0.28833933192732525	1.9809877966796652	-0.5644774671931232	-0.31498677985531504	1.8954215567821022	-0.5165072605625105	-0.24972353099397754	1.866012333256739	-0.48960981815714194	-0.2400905591224724	1.9851808323768938	-0.7011667830367291	-1.1146163608714412	1.8312826176716352	0.14846477708351324	-0.18002725752094706	1.8780379900200068	-0.6579612052367453
6	0.1	-0.2693789802346571	1.8157322528042346	-0.5910084635828348	-0.2845397484976885	1.8147368865147449	-0.5318432538792988	-0.2832926854245429	1.6802718320246324	-0.5102871078859514	-0.2969353881865092	1.5525797836038044	-0.5106715264530092	-0.2508583281631417	1.5191108453078865	-0.48782840329011595	-0.2642078974859368	1.5237012908806764	-0.4734765266996833	-0.30338320286051257	1.537335808241453	-0.511359395240188	-0.25506104171805605	1.8188135959101737	-0.6479604463411355	-0.25522785643663537	1.6804249647023624	-0.6226303680700336	-0.24947342236511336	1.5384958399866855	-0.5240607035241428	-0.3516220028086925	1.5137054982842186	-1.0480138257654974	-0.34676915498643635	1.523902071143449	-1.0344293003277045	-0.3964975043174128	1.5319819055392228	-1.0102164409824286	-0.2623320959599107	1.9832562084459209	-0.6332028356597893	-0.22285006497536525	2.0534377121854557	-0.6135649520251312	-0.2851580324244525	1.9821293595854796	-0.5634440448199383	-0.31377949756870216	1.8995014130968086	-0.5137151747979392	-0.2578814908650872	1.8763913399061234	-0.4768398522768995	-0.2378411899599472	1.9842859396850512	-0.7032079986148386	-1.1289394702249531	1.8305098266105704	0.1681150427380739	-0.17013981491502367	1.886152098332667	-0.6781574909570469
7	0.11666666666666667	-0.2695453685681014	1.8174130463792655	-0.5912044502219156	-0.2846285197823519	1.816181511384579	-0.5318815479324213	-0.28464664236702175	1.6827036378369986	-0.5134206111835401	-0.2969442137900486	1.5526599228917248	-0.5106686528543529	-0.2510871558323309	1.5203617953331023	-0.48774795745654437	-0.26334684650886175	1.5246433915301385	-0.47024656841583307	-0.3027872033638381	1.5394414256183686	-0.5127278384817551	-0.25631181902260747	1.8187405075413103	-0.6510628061610806	-0.25526498238259426	1.6840936329074718	-0.6226658311922899	-0.24947342236511336	1.5384958399866855	-0.5240607035241428	-0.3516220028086925	1.5137054982842186	-1.0480138257654974	-0.34676915498643635	1.523902071143449	-1.0344293003277045	-0.3982900168932776	1.5338699564762173	-1.0069545571491785	-0.26132779178794113	1.9831208269115395	-0.6301020008094512	-0.22288561707604557	2.052390426734025	-0.6135609981720966	-0.281216482927554	1.9792682535912702	-0.5505319679220244	-0.3107639836833693	1.899656946842733	-0.5048801715884051	-0.25585091558884215	1.8778328081588787	-0.47071651044516305	-0.23863079924413605	1.9843756481538042	-0.7062828949590231	-0.22606928478470484	1.9028681405387302	-0.7343583050130102	-0.16377348662084332	1.8965474191087017	-0.7451041836594003
8	0.13333333333333333	-0.26728959753413717	1.8177281084120405	-0.6019243214954617	-0.2854280943493262	1.817477266573093	-0.5354784202890471	-0.28521064812845537	1.6820715373161372	-0.5171332434239754	-0.2957074222635123	1.5514992355641282	-0.5078253763582683	-0.25031251508045926	1.518976021092868	-0.4885941716701671	-0.2631620921059096	1.5238567640757936	-0.4702100109243949	-0.30231535762550676	1.5345817119309129	-0.5124388929820414	-0.2552630467628331	1.8199723772789533	-0.6566200981732213	-0.2515895848641422	1.6862789900709445	-0.6181574673694457	-0.24947342236511336	1.5384958399866855	-0.5240607035241428	-0.3516220028086925	1.5137054982842186	-1.0480138257654974	-0.34676915498643635	1.523902071143449	-1.0344293003277045	-0.40008252946914236	1.5357580074132118	-1.0036926733159284	-0.2603884916508321	1.9831111681691258	-0.6271781845867466	-0.22200912100773973	2.0508566047763837	-0.6099625113913899	-0.28118010560315104	1.9830071093653636	-0.5512492105785575	-0.30551376322772644	1.9002744669009404	-0.4889686926137192	-0.2533652010660619	1.8768679910981272	-0.4463800321351576	-0.23551629047511363	1.9856422420012099	-0.7053849343572514	-0.22157920268897646	1.9061709085128538	-0.7394097552544788	-0.16461671009486367	1.919380560933493	-0.7584107781339444
